<svg width="500" height="666" viewBox="0 0 717 666" fill="none" xmlns="http://www.w3.org/2000/svg">
<path fill-rule="evenodd" clip-rule="evenodd" d="M419.478 597.296C358.045 595.901 317.225 544.758 264.802 516.472C219.783 492.18 169.518 478.915 134.338 443.439C90.9022 399.638 25.7481 350.589 41.7336 291.527C58.1141 231.005 153.229 227.293 204.116 185.626C246.648 150.799 262.066 92.1654 313.012 69.398C371.15 43.4161 445.33 23.8547 499.299 53.7082C553.176 83.5106 539.229 160.518 569.696 211.384C600.229 262.362 670.475 291.291 676.714 349.914C683.391 412.665 651.114 477.861 602.978 524.152C555.402 569.906 486.862 598.826 419.478 597.296Z" fill="#C4C4C4" fill-opacity="0.15"/>
</svg>
